<?xml version="1.0" encoding="utf-8"?>
<!-- Generator: Adobe Illustrator 25.4.1, SVG Export Plug-In . SVG Version: 6.00 Build 0)  -->
<svg version="1.1" id="Layer_1" xmlns="http://www.w3.org/2000/svg" xmlns:xlink="http://www.w3.org/1999/xlink" x="0px" y="0px"
	 viewBox="0 0 415 415" style="enable-background:new 0 0 415 415;" xml:space="preserve">
<style type="text/css">
	.st0{clip-path:url(#SVGID_00000023983571062237812790000006595575821879781783_);}
	.st1{fill:none;stroke:#FFFFFF;stroke-width:0.75;stroke-linecap:round;stroke-linejoin:round;stroke-miterlimit:10;}
	.st2{clip-path:url(#SVGID_00000051376161064289554300000002092313273820468111_);}
	.st3{clip-path:url(#SVGID_00000146489304325473007890000000680064906351318206_);}
	.st4{fill:#351057;}
	.st5{fill:#212100;}
	.st6{fill:#11051D;}
	.st7{fill:#656500;}
	.st8{fill:#434300;}
	.st9{fill:#888800;}
	.st10{fill:#230A3A;}
	.st11{fill:#EEEE00;}
	.st12{fill:#AAAA00;}
	.st13{fill:#471575;}
	.st14{fill:#6B20AF;}
	.st15{fill:#591B92;}
	.st16{fill:#CBCB00;}
	.st17{fill:#7D26CD;}
	.st18{fill:#FFFFFF;}
	.st19{font-family:'ArialMT';}
	.st20{font-size:5.3284px;}
	.st21{fill:none;}
	.st22{enable-background:new    ;}
	.st23{letter-spacing:3;}
	.st24{fill:#E69F00;}
	.st25{fill:#F0E442;}
	.st26{fill:#D55E00;}
	.st27{fill:#484E4E;}
	.st28{font-size:6.6604px;}
	.st29{font-size:4.6623px;}
	.st30{font-family:'MyriadPro-Regular';}
	.st31{font-size:14px;}
</style>
<g>
	<defs>
		<rect id="SVGID_1_" x="38.6" y="26.9" width="332.8" height="36.6"/>
	</defs>
	<clipPath id="SVGID_00000102530467625025239090000017052722554725838238_">
		<use xlink:href="#SVGID_1_"  style="overflow:visible;"/>
	</clipPath>
	<g style="clip-path:url(#SVGID_00000102530467625025239090000017052722554725838238_);">
		<polyline class="st1" points="87.2,63.6 87.2,58.7 101,58.7 101,63.6 		"/>
		<polyline class="st1" points="322.9,63.6 322.9,56.8 336.8,56.8 336.8,63.6 		"/>
		<polyline class="st1" points="239.7,63.6 239.7,56 253.6,56 253.6,63.6 		"/>
		<polyline class="st1" points="128.8,63.6 128.8,56 142.6,56 142.6,63.6 		"/>
		<polyline class="st1" points="267.5,63.6 267.5,55.5 281.3,55.5 281.3,63.6 		"/>
		<polyline class="st1" points="212,63.6 212,55.5 225.9,55.5 225.9,63.6 		"/>
		<polyline class="st1" points="184.2,63.6 184.2,55 198.1,55 198.1,63.6 		"/>
		<polyline class="st1" points="73.3,63.6 73.3,54.3 94.1,54.3 94.1,58.7 		"/>
		<polyline class="st1" points="170.4,63.6 170.4,54 191.2,54 191.2,55 		"/>
		<polyline class="st1" points="246.7,56 246.7,53.5 274.4,53.5 274.4,55.5 		"/>
		<polyline class="st1" points="156.5,63.6 156.5,53.2 180.8,53.2 180.8,54 		"/>
		<polyline class="st1" points="309.1,63.6 309.1,52.9 329.9,52.9 329.9,56.8 		"/>
		<polyline class="st1" points="59.4,63.6 59.4,52.4 83.7,52.4 83.7,54.3 		"/>
		<polyline class="st1" points="135.7,56 135.7,52.2 168.6,52.2 168.6,53.2 		"/>
		<polyline class="st1" points="295.2,63.6 295.2,52.2 319.5,52.2 319.5,52.9 		"/>
		<polyline class="st1" points="218.9,55.5 218.9,51.8 260.5,51.8 260.5,53.5 		"/>
		<polyline class="st1" points="45.6,63.6 45.6,50.4 71.6,50.4 71.6,52.4 		"/>
		<polyline class="st1" points="350.7,63.6 350.7,50.3 364.5,50.3 364.5,63.6 		"/>
		<polyline class="st1" points="114.9,63.6 114.9,47.6 152.2,47.6 152.2,52.2 		"/>
		<polyline class="st1" points="58.6,50.4 58.6,44.9 133.5,44.9 133.5,47.6 		"/>
		<polyline class="st1" points="307.3,52.2 307.3,44.7 357.6,44.7 357.6,50.3 		"/>
		<polyline class="st1" points="239.7,51.8 239.7,40.1 332.5,40.1 332.5,44.7 		"/>
		<polyline class="st1" points="96.1,44.9 96.1,28.7 286.1,28.7 286.1,40.1 		"/>
	</g>
</g>
<g>
	<defs>
		<rect id="SVGID_00000141427871810378730520000005662767688592052370_" x="2" y="70.9" width="36.6" height="336.4"/>
	</defs>
	<clipPath id="SVGID_00000040556645362461213380000012167576493493564036_">
		<use xlink:href="#SVGID_00000141427871810378730520000005662767688592052370_"  style="overflow:visible;"/>
	</clipPath>
	<g style="clip-path:url(#SVGID_00000040556645362461213380000012167576493493564036_);">
		<polyline class="st1" points="38.6,117.6 38.6,117.6 38.6,136.3 38.6,136.3 		"/>
		<polyline class="st1" points="38.6,98.9 31.1,98.9 31.1,126.9 38.6,126.9 		"/>
		<polyline class="st1" points="38.6,155 30.5,155 30.5,173.7 38.6,173.7 		"/>
		<polyline class="st1" points="38.6,211 29.1,211 29.1,229.7 38.6,229.7 		"/>
		<polyline class="st1" points="31.1,112.9 29.1,112.9 29.1,164.3 30.5,164.3 		"/>
		<polyline class="st1" points="38.6,192.3 26.6,192.3 26.6,220.4 29.1,220.4 		"/>
		<polyline class="st1" points="38.6,267.1 26.5,267.1 26.5,285.8 38.6,285.8 		"/>
		<polyline class="st1" points="29.1,138.6 25.2,138.6 25.2,206.4 26.6,206.4 		"/>
		<polyline class="st1" points="38.6,379.2 22.1,379.2 22.1,397.9 38.6,397.9 		"/>
		<polyline class="st1" points="38.6,80.2 21.6,80.2 21.6,172.5 25.2,172.5 		"/>
		<polyline class="st1" points="38.6,248.4 21,248.4 21,276.4 26.5,276.4 		"/>
		<polyline class="st1" points="38.6,323.1 20.1,323.1 20.1,341.8 38.6,341.8 		"/>
		<polyline class="st1" points="21.6,126.4 18.6,126.4 18.6,262.4 21,262.4 		"/>
		<polyline class="st1" points="38.6,304.5 18.5,304.5 18.5,332.5 20.1,332.5 		"/>
		<polyline class="st1" points="38.6,360.5 15.3,360.5 15.3,388.5 22.1,388.5 		"/>
		<polyline class="st1" points="18.5,318.5 6.8,318.5 6.8,374.5 15.3,374.5 		"/>
		<polyline class="st1" points="18.6,194.4 3.7,194.4 3.7,346.5 6.8,346.5 		"/>
	</g>
</g>
<g>
	<defs>
		<rect id="SVGID_00000160898186058251097290000009594931608293857423_" x="2" y="26.9" width="479.6" height="383.6"/>
	</defs>
	<clipPath id="SVGID_00000181057582902907151000000001416212670156504255_">
		<use xlink:href="#SVGID_00000160898186058251097290000009594931608293857423_"  style="overflow:visible;"/>
	</clipPath>
	<g style="clip-path:url(#SVGID_00000181057582902907151000000001416212670156504255_);">
		<rect x="38.6" y="70.9" class="st4" width="13.9" height="18.7"/>
		<rect x="38.6" y="89.6" class="st5" width="13.9" height="18.7"/>
		<rect x="38.6" y="108.3" width="13.9" height="18.7"/>
		<rect x="38.6" y="126.9" width="13.9" height="18.7"/>
		<rect x="38.6" y="145.6" width="13.9" height="18.7"/>
		<rect x="38.6" y="164.3" class="st5" width="13.9" height="18.7"/>
		<rect x="38.6" y="183" class="st6" width="13.9" height="18.7"/>
		<rect x="38.6" y="201.7" class="st6" width="13.9" height="18.7"/>
		<rect x="38.6" y="220.4" width="13.9" height="18.7"/>
		<rect x="38.6" y="239.1" class="st7" width="13.9" height="18.7"/>
		<rect x="38.6" y="257.7" class="st8" width="13.9" height="18.7"/>
		<rect x="38.6" y="276.4" class="st8" width="13.9" height="18.7"/>
		<rect x="38.6" y="295.1" class="st7" width="13.9" height="18.7"/>
		<rect x="38.6" y="313.8" class="st5" width="13.9" height="18.7"/>
		<rect x="38.6" y="332.5" class="st5" width="13.9" height="18.7"/>
		<rect x="38.6" y="351.2" class="st9" width="13.9" height="18.7"/>
		<rect x="38.6" y="369.9" class="st9" width="13.9" height="18.7"/>
		<rect x="38.6" y="388.5" class="st7" width="13.9" height="18.7"/>
		<rect x="52.5" y="70.9" class="st8" width="13.9" height="18.7"/>
		<rect x="52.5" y="89.6" class="st10" width="13.9" height="18.7"/>
		<rect x="52.5" y="108.3" class="st6" width="13.9" height="18.7"/>
		<rect x="52.5" y="126.9" class="st6" width="13.9" height="18.7"/>
		<rect x="52.5" y="145.6" class="st6" width="13.9" height="18.7"/>
		<rect x="52.5" y="164.3" width="13.9" height="18.7"/>
		<rect x="52.5" y="183" class="st6" width="13.9" height="18.7"/>
		<rect x="52.5" y="201.7" class="st10" width="13.9" height="18.7"/>
		<rect x="52.5" y="220.4" class="st4" width="13.9" height="18.7"/>
		<rect x="52.5" y="239.1" class="st6" width="13.9" height="18.7"/>
		<rect x="52.5" y="257.7" class="st5" width="13.9" height="18.7"/>
		<rect x="52.5" y="276.4" class="st8" width="13.9" height="18.7"/>
		<rect x="52.5" y="295.1" class="st7" width="13.9" height="18.7"/>
		<rect x="52.5" y="313.8" class="st7" width="13.9" height="18.7"/>
		<rect x="52.5" y="332.5" width="13.9" height="18.7"/>
		<rect x="52.5" y="351.2" class="st11" width="13.9" height="18.7"/>
		<rect x="52.5" y="369.9" class="st5" width="13.9" height="18.7"/>
		<rect x="52.5" y="388.5" class="st5" width="13.9" height="18.7"/>
		<rect x="66.4" y="70.9" class="st4" width="13.9" height="18.7"/>
		<rect x="66.4" y="89.6" class="st6" width="13.9" height="18.7"/>
		<rect x="66.4" y="108.3" class="st10" width="13.9" height="18.7"/>
		<rect x="66.4" y="126.9" class="st10" width="13.9" height="18.7"/>
		<rect x="66.4" y="145.6" width="13.9" height="18.7"/>
		<rect x="66.4" y="164.3" class="st6" width="13.9" height="18.7"/>
		<rect x="66.4" y="183" class="st6" width="13.9" height="18.7"/>
		<rect x="66.4" y="201.7" class="st5" width="13.9" height="18.7"/>
		<rect x="66.4" y="220.4" class="st10" width="13.9" height="18.7"/>
		<rect x="66.4" y="239.1" class="st10" width="13.9" height="18.7"/>
		<rect x="66.4" y="257.7" class="st10" width="13.9" height="18.7"/>
		<rect x="66.4" y="276.4" width="13.9" height="18.7"/>
		<rect x="66.4" y="295.1" class="st12" width="13.9" height="18.7"/>
		<rect x="66.4" y="313.8" width="13.9" height="18.7"/>
		<rect x="66.4" y="332.5" class="st6" width="13.9" height="18.7"/>
		<rect x="66.4" y="351.2" class="st9" width="13.9" height="18.7"/>
		<rect x="66.4" y="369.9" class="st9" width="13.9" height="18.7"/>
		<rect x="66.4" y="388.5" class="st8" width="13.9" height="18.7"/>
		<rect x="80.2" y="70.9" class="st10" width="13.9" height="18.7"/>
		<rect x="80.2" y="89.6" class="st4" width="13.9" height="18.7"/>
		<rect x="80.2" y="108.3" class="st10" width="13.9" height="18.7"/>
		<rect x="80.2" y="126.9" class="st10" width="13.9" height="18.7"/>
		<rect x="80.2" y="145.6" class="st10" width="13.9" height="18.7"/>
		<rect x="80.2" y="164.3" class="st6" width="13.9" height="18.7"/>
		<rect x="80.2" y="183" class="st10" width="13.9" height="18.7"/>
		<rect x="80.2" y="201.7" class="st6" width="13.9" height="18.7"/>
		<rect x="80.2" y="220.4" class="st6" width="13.9" height="18.7"/>
		<rect x="80.2" y="239.1" class="st10" width="13.9" height="18.7"/>
		<rect x="80.2" y="257.7" class="st6" width="13.9" height="18.7"/>
		<rect x="80.2" y="276.4" class="st4" width="13.9" height="18.7"/>
		<rect x="80.2" y="295.1" class="st8" width="13.9" height="18.7"/>
		<rect x="80.2" y="313.8" class="st7" width="13.9" height="18.7"/>
		<rect x="80.2" y="332.5" class="st5" width="13.9" height="18.7"/>
		<rect x="80.2" y="351.2" class="st5" width="13.9" height="18.7"/>
		<rect x="80.2" y="369.9" class="st8" width="13.9" height="18.7"/>
		<rect x="80.2" y="388.5" class="st5" width="13.9" height="18.7"/>
		<rect x="94.1" y="70.9" class="st10" width="13.9" height="18.7"/>
		<rect x="94.1" y="89.6" class="st6" width="13.9" height="18.7"/>
		<rect x="94.1" y="108.3" class="st10" width="13.9" height="18.7"/>
		<rect x="94.1" y="126.9" class="st10" width="13.9" height="18.7"/>
		<rect x="94.1" y="145.6" class="st10" width="13.9" height="18.7"/>
		<rect x="94.1" y="164.3" class="st6" width="13.9" height="18.7"/>
		<rect x="94.1" y="183" class="st6" width="13.9" height="18.7"/>
		<rect x="94.1" y="201.7" class="st10" width="13.9" height="18.7"/>
		<rect x="94.1" y="220.4" class="st10" width="13.9" height="18.7"/>
		<rect x="94.1" y="239.1" width="13.9" height="18.7"/>
		<rect x="94.1" y="257.7" class="st6" width="13.9" height="18.7"/>
		<rect x="94.1" y="276.4" class="st6" width="13.9" height="18.7"/>
		<rect x="94.1" y="295.1" class="st8" width="13.9" height="18.7"/>
		<rect x="94.1" y="313.8" class="st8" width="13.9" height="18.7"/>
		<rect x="94.1" y="332.5" class="st5" width="13.9" height="18.7"/>
		<rect x="94.1" y="351.2" class="st5" width="13.9" height="18.7"/>
		<rect x="94.1" y="369.9" class="st7" width="13.9" height="18.7"/>
		<rect x="94.1" y="388.5" class="st5" width="13.9" height="18.7"/>
		<rect x="108" y="70.9" width="13.9" height="18.7"/>
		<rect x="108" y="89.6" class="st13" width="13.9" height="18.7"/>
		<rect x="108" y="108.3" class="st4" width="13.9" height="18.7"/>
		<rect x="108" y="126.9" class="st4" width="13.9" height="18.7"/>
		<rect x="108" y="145.6" class="st4" width="13.9" height="18.7"/>
		<rect x="108" y="164.3" class="st10" width="13.9" height="18.7"/>
		<rect x="108" y="183" class="st6" width="13.9" height="18.7"/>
		<rect x="108" y="201.7" class="st6" width="13.9" height="18.7"/>
		<rect x="108" y="220.4" class="st10" width="13.9" height="18.7"/>
		<rect x="108" y="239.1" class="st14" width="13.9" height="18.7"/>
		<rect x="108" y="257.7" width="13.9" height="18.7"/>
		<rect x="108" y="276.4" class="st4" width="13.9" height="18.7"/>
		<rect x="108" y="295.1" class="st9" width="13.9" height="18.7"/>
		<rect x="108" y="313.8" class="st9" width="13.9" height="18.7"/>
		<rect x="108" y="332.5" class="st7" width="13.9" height="18.7"/>
		<rect x="108" y="351.2" class="st6" width="13.9" height="18.7"/>
		<rect x="108" y="369.9" class="st9" width="13.9" height="18.7"/>
		<rect x="108" y="388.5" class="st8" width="13.9" height="18.7"/>
		<rect x="121.8" y="70.9" class="st4" width="13.9" height="18.7"/>
		<rect x="121.8" y="89.6" width="13.9" height="18.7"/>
		<rect x="121.8" y="108.3" class="st6" width="13.9" height="18.7"/>
		<rect x="121.8" y="126.9" class="st6" width="13.9" height="18.7"/>
		<rect x="121.8" y="145.6" class="st6" width="13.9" height="18.7"/>
		<rect x="121.8" y="164.3" class="st10" width="13.9" height="18.7"/>
		<rect x="121.8" y="183" width="13.9" height="18.7"/>
		<rect x="121.8" y="201.7" class="st10" width="13.9" height="18.7"/>
		<rect x="121.8" y="220.4" width="13.9" height="18.7"/>
		<rect x="121.8" y="239.1" class="st5" width="13.9" height="18.7"/>
		<rect x="121.8" y="257.7" class="st10" width="13.9" height="18.7"/>
		<rect x="121.8" y="276.4" class="st6" width="13.9" height="18.7"/>
		<rect x="121.8" y="295.1" class="st5" width="13.9" height="18.7"/>
		<rect x="121.8" y="313.8" class="st7" width="13.9" height="18.7"/>
		<rect x="121.8" y="332.5" class="st9" width="13.9" height="18.7"/>
		<rect x="121.8" y="351.2" class="st4" width="13.9" height="18.7"/>
		<rect x="121.8" y="369.9" class="st6" width="13.9" height="18.7"/>
		<rect x="121.8" y="388.5" class="st8" width="13.9" height="18.7"/>
		<rect x="135.7" y="70.9" width="13.9" height="18.7"/>
		<rect x="135.7" y="89.6" class="st5" width="13.9" height="18.7"/>
		<rect x="135.7" y="108.3" class="st10" width="13.9" height="18.7"/>
		<rect x="135.7" y="126.9" class="st10" width="13.9" height="18.7"/>
		<rect x="135.7" y="145.6" width="13.9" height="18.7"/>
		<rect x="135.7" y="164.3" class="st10" width="13.9" height="18.7"/>
		<rect x="135.7" y="183" class="st6" width="13.9" height="18.7"/>
		<rect x="135.7" y="201.7" class="st6" width="13.9" height="18.7"/>
		<rect x="135.7" y="220.4" width="13.9" height="18.7"/>
		<rect x="135.7" y="239.1" class="st5" width="13.9" height="18.7"/>
		<rect x="135.7" y="257.7" class="st4" width="13.9" height="18.7"/>
		<rect x="135.7" y="276.4" width="13.9" height="18.7"/>
		<rect x="135.7" y="295.1" class="st8" width="13.9" height="18.7"/>
		<rect x="135.7" y="313.8" class="st7" width="13.9" height="18.7"/>
		<rect x="135.7" y="332.5" class="st12" width="13.9" height="18.7"/>
		<rect x="135.7" y="351.2" class="st15" width="13.9" height="18.7"/>
		<rect x="135.7" y="369.9" class="st6" width="13.9" height="18.7"/>
		<rect x="135.7" y="388.5" class="st10" width="13.9" height="18.7"/>
		<rect x="149.6" y="70.9" width="13.9" height="18.7"/>
		<rect x="149.6" y="89.6" class="st10" width="13.9" height="18.7"/>
		<rect x="149.6" y="108.3" class="st6" width="13.9" height="18.7"/>
		<rect x="149.6" y="126.9" class="st6" width="13.9" height="18.7"/>
		<rect x="149.6" y="145.6" class="st13" width="13.9" height="18.7"/>
		<rect x="149.6" y="164.3" class="st10" width="13.9" height="18.7"/>
		<rect x="149.6" y="183" class="st6" width="13.9" height="18.7"/>
		<rect x="149.6" y="201.7" class="st10" width="13.9" height="18.7"/>
		<rect x="149.6" y="220.4" class="st6" width="13.9" height="18.7"/>
		<rect x="149.6" y="239.1" class="st5" width="13.9" height="18.7"/>
		<rect x="149.6" y="257.7" class="st10" width="13.9" height="18.7"/>
		<rect x="149.6" y="276.4" class="st14" width="13.9" height="18.7"/>
		<rect x="149.6" y="295.1" class="st9" width="13.9" height="18.7"/>
		<rect x="149.6" y="313.8" class="st5" width="13.9" height="18.7"/>
		<rect x="149.6" y="332.5" class="st9" width="13.9" height="18.7"/>
		<rect x="149.6" y="351.2" class="st6" width="13.9" height="18.7"/>
		<rect x="149.6" y="369.9" class="st6" width="13.9" height="18.7"/>
		<rect x="149.6" y="388.5" class="st6" width="13.9" height="18.7"/>
		<rect x="163.4" y="70.9" class="st8" width="13.9" height="18.7"/>
		<rect x="163.4" y="89.6" class="st10" width="13.9" height="18.7"/>
		<rect x="163.4" y="108.3" class="st10" width="13.9" height="18.7"/>
		<rect x="163.4" y="126.9" class="st10" width="13.9" height="18.7"/>
		<rect x="163.4" y="145.6" class="st10" width="13.9" height="18.7"/>
		<rect x="163.4" y="164.3" class="st4" width="13.9" height="18.7"/>
		<rect x="163.4" y="183" class="st5" width="13.9" height="18.7"/>
		<rect x="163.4" y="201.7" class="st4" width="13.9" height="18.7"/>
		<rect x="163.4" y="220.4" class="st10" width="13.9" height="18.7"/>
		<rect x="163.4" y="239.1" class="st6" width="13.9" height="18.7"/>
		<rect x="163.4" y="257.7" class="st15" width="13.9" height="18.7"/>
		<rect x="163.4" y="276.4" class="st6" width="13.9" height="18.7"/>
		<rect x="163.4" y="295.1" class="st7" width="13.9" height="18.7"/>
		<rect x="163.4" y="313.8" class="st7" width="13.9" height="18.7"/>
		<rect x="163.4" y="332.5" class="st9" width="13.9" height="18.7"/>
		<rect x="163.4" y="351.2" width="13.9" height="18.7"/>
		<rect x="163.4" y="369.9" class="st6" width="13.9" height="18.7"/>
		<rect x="163.4" y="388.5" class="st8" width="13.9" height="18.7"/>
		<rect x="177.3" y="70.9" class="st6" width="13.9" height="18.7"/>
		<rect x="177.3" y="89.6" class="st13" width="13.9" height="18.7"/>
		<rect x="177.3" y="108.3" class="st10" width="13.9" height="18.7"/>
		<rect x="177.3" y="126.9" class="st10" width="13.9" height="18.7"/>
		<rect x="177.3" y="145.6" class="st10" width="13.9" height="18.7"/>
		<rect x="177.3" y="164.3" class="st4" width="13.9" height="18.7"/>
		<rect x="177.3" y="183" class="st10" width="13.9" height="18.7"/>
		<rect x="177.3" y="201.7" width="13.9" height="18.7"/>
		<rect x="177.3" y="220.4" class="st6" width="13.9" height="18.7"/>
		<rect x="177.3" y="239.1" class="st10" width="13.9" height="18.7"/>
		<rect x="177.3" y="257.7" class="st4" width="13.9" height="18.7"/>
		<rect x="177.3" y="276.4" class="st10" width="13.9" height="18.7"/>
		<rect x="177.3" y="295.1" class="st5" width="13.9" height="18.7"/>
		<rect x="177.3" y="313.8" class="st7" width="13.9" height="18.7"/>
		<rect x="177.3" y="332.5" class="st12" width="13.9" height="18.7"/>
		<rect x="177.3" y="351.2" class="st13" width="13.9" height="18.7"/>
		<rect x="177.3" y="369.9" width="13.9" height="18.7"/>
		<rect x="177.3" y="388.5" width="13.9" height="18.7"/>
		<rect x="191.2" y="70.9" class="st4" width="13.9" height="18.7"/>
		<rect x="191.2" y="89.6" class="st10" width="13.9" height="18.7"/>
		<rect x="191.2" y="108.3" class="st6" width="13.9" height="18.7"/>
		<rect x="191.2" y="126.9" class="st6" width="13.9" height="18.7"/>
		<rect x="191.2" y="145.6" class="st6" width="13.9" height="18.7"/>
		<rect x="191.2" y="164.3" class="st10" width="13.9" height="18.7"/>
		<rect x="191.2" y="183" class="st6" width="13.9" height="18.7"/>
		<rect x="191.2" y="201.7" width="13.9" height="18.7"/>
		<rect x="191.2" y="220.4" class="st6" width="13.9" height="18.7"/>
		<rect x="191.2" y="239.1" class="st6" width="13.9" height="18.7"/>
		<rect x="191.2" y="257.7" class="st13" width="13.9" height="18.7"/>
		<rect x="191.2" y="276.4" class="st6" width="13.9" height="18.7"/>
		<rect x="191.2" y="295.1" class="st7" width="13.9" height="18.7"/>
		<rect x="191.2" y="313.8" class="st8" width="13.9" height="18.7"/>
		<rect x="191.2" y="332.5" class="st12" width="13.9" height="18.7"/>
		<rect x="191.2" y="351.2" class="st5" width="13.9" height="18.7"/>
		<rect x="191.2" y="369.9" width="13.9" height="18.7"/>
		<rect x="191.2" y="388.5" class="st10" width="13.9" height="18.7"/>
		<rect x="205" y="70.9" class="st8" width="13.9" height="18.7"/>
		<rect x="205" y="89.6" class="st7" width="13.9" height="18.7"/>
		<rect x="205" y="108.3" class="st8" width="13.9" height="18.7"/>
		<rect x="205" y="126.9" class="st8" width="13.9" height="18.7"/>
		<rect x="205" y="145.6" class="st5" width="13.9" height="18.7"/>
		<rect x="205" y="164.3" class="st5" width="13.9" height="18.7"/>
		<rect x="205" y="183" width="13.9" height="18.7"/>
		<rect x="205" y="201.7" class="st8" width="13.9" height="18.7"/>
		<rect x="205" y="220.4" class="st5" width="13.9" height="18.7"/>
		<rect x="205" y="239.1" class="st7" width="13.9" height="18.7"/>
		<rect x="205" y="257.7" class="st9" width="13.9" height="18.7"/>
		<rect x="205" y="276.4" class="st9" width="13.9" height="18.7"/>
		<rect x="205" y="295.1" width="13.9" height="18.7"/>
		<rect x="205" y="313.8" width="13.9" height="18.7"/>
		<rect x="205" y="332.5" class="st6" width="13.9" height="18.7"/>
		<rect x="205" y="351.2" class="st7" width="13.9" height="18.7"/>
		<rect x="205" y="369.9" class="st7" width="13.9" height="18.7"/>
		<rect x="205" y="388.5" class="st16" width="13.9" height="18.7"/>
		<rect x="218.9" y="70.9" class="st7" width="13.9" height="18.7"/>
		<rect x="218.9" y="89.6" class="st8" width="13.9" height="18.7"/>
		<rect x="218.9" y="108.3" class="st7" width="13.9" height="18.7"/>
		<rect x="218.9" y="126.9" class="st7" width="13.9" height="18.7"/>
		<rect x="218.9" y="145.6" class="st8" width="13.9" height="18.7"/>
		<rect x="218.9" y="164.3" class="st7" width="13.9" height="18.7"/>
		<rect x="218.9" y="183" class="st10" width="13.9" height="18.7"/>
		<rect x="218.9" y="201.7" width="13.9" height="18.7"/>
		<rect x="218.9" y="220.4" class="st7" width="13.9" height="18.7"/>
		<rect x="218.9" y="239.1" class="st5" width="13.9" height="18.7"/>
		<rect x="218.9" y="257.7" class="st9" width="13.9" height="18.7"/>
		<rect x="218.9" y="276.4" class="st12" width="13.9" height="18.7"/>
		<rect x="218.9" y="295.1" class="st10" width="13.9" height="18.7"/>
		<rect x="218.9" y="313.8" class="st7" width="13.9" height="18.7"/>
		<rect x="218.9" y="332.5" class="st4" width="13.9" height="18.7"/>
		<rect x="218.9" y="351.2" class="st8" width="13.9" height="18.7"/>
		<rect x="218.9" y="369.9" class="st7" width="13.9" height="18.7"/>
		<rect x="218.9" y="388.5" class="st9" width="13.9" height="18.7"/>
		<rect x="232.8" y="70.9" width="13.9" height="18.7"/>
		<rect x="232.8" y="89.6" class="st8" width="13.9" height="18.7"/>
		<rect x="232.8" y="108.3" class="st7" width="13.9" height="18.7"/>
		<rect x="232.8" y="126.9" class="st7" width="13.9" height="18.7"/>
		<rect x="232.8" y="145.6" class="st7" width="13.9" height="18.7"/>
		<rect x="232.8" y="164.3" class="st8" width="13.9" height="18.7"/>
		<rect x="232.8" y="183" width="13.9" height="18.7"/>
		<rect x="232.8" y="201.7" class="st6" width="13.9" height="18.7"/>
		<rect x="232.8" y="220.4" class="st6" width="13.9" height="18.7"/>
		<rect x="232.8" y="239.1" class="st5" width="13.9" height="18.7"/>
		<rect x="232.8" y="257.7" class="st7" width="13.9" height="18.7"/>
		<rect x="232.8" y="276.4" class="st8" width="13.9" height="18.7"/>
		<rect x="232.8" y="295.1" class="st4" width="13.9" height="18.7"/>
		<rect x="232.8" y="313.8" class="st7" width="13.9" height="18.7"/>
		<rect x="232.8" y="332.5" class="st6" width="13.9" height="18.7"/>
		<rect x="232.8" y="351.2" width="13.9" height="18.7"/>
		<rect x="232.8" y="369.9" width="13.9" height="18.7"/>
		<rect x="232.8" y="388.5" class="st8" width="13.9" height="18.7"/>
		<rect x="246.7" y="70.9" class="st10" width="13.9" height="18.7"/>
		<rect x="246.7" y="89.6" class="st5" width="13.9" height="18.7"/>
		<rect x="246.7" y="108.3" class="st8" width="13.9" height="18.7"/>
		<rect x="246.7" y="126.9" class="st8" width="13.9" height="18.7"/>
		<rect x="246.7" y="145.6" class="st8" width="13.9" height="18.7"/>
		<rect x="246.7" y="164.3" class="st7" width="13.9" height="18.7"/>
		<rect x="246.7" y="183" width="13.9" height="18.7"/>
		<rect x="246.7" y="201.7" class="st7" width="13.9" height="18.7"/>
		<rect x="246.7" y="220.4" class="st5" width="13.9" height="18.7"/>
		<rect x="246.7" y="239.1" class="st5" width="13.9" height="18.7"/>
		<rect x="246.7" y="257.7" class="st9" width="13.9" height="18.7"/>
		<rect x="246.7" y="276.4" class="st7" width="13.9" height="18.7"/>
		<rect x="246.7" y="295.1" class="st4" width="13.9" height="18.7"/>
		<rect x="246.7" y="313.8" class="st5" width="13.9" height="18.7"/>
		<rect x="246.7" y="332.5" class="st6" width="13.9" height="18.7"/>
		<rect x="246.7" y="351.2" width="13.9" height="18.7"/>
		<rect x="246.7" y="369.9" class="st5" width="13.9" height="18.7"/>
		<rect x="246.7" y="388.5" class="st5" width="13.9" height="18.7"/>
		<rect x="260.5" y="70.9" class="st8" width="13.9" height="18.7"/>
		<rect x="260.5" y="89.6" class="st5" width="13.9" height="18.7"/>
		<rect x="260.5" y="108.3" class="st5" width="13.9" height="18.7"/>
		<rect x="260.5" y="126.9" class="st5" width="13.9" height="18.7"/>
		<rect x="260.5" y="145.6" class="st5" width="13.9" height="18.7"/>
		<rect x="260.5" y="164.3" class="st8" width="13.9" height="18.7"/>
		<rect x="260.5" y="183" class="st7" width="13.9" height="18.7"/>
		<rect x="260.5" y="201.7" width="13.9" height="18.7"/>
		<rect x="260.5" y="220.4" class="st6" width="13.9" height="18.7"/>
		<rect x="260.5" y="239.1" class="st6" width="13.9" height="18.7"/>
		<rect x="260.5" y="257.7" class="st7" width="13.9" height="18.7"/>
		<rect x="260.5" y="276.4" class="st7" width="13.9" height="18.7"/>
		<rect x="260.5" y="295.1" width="13.9" height="18.7"/>
		<rect x="260.5" y="313.8" class="st5" width="13.9" height="18.7"/>
		<rect x="260.5" y="332.5" class="st10" width="13.9" height="18.7"/>
		<rect x="260.5" y="351.2" class="st5" width="13.9" height="18.7"/>
		<rect x="260.5" y="369.9" class="st7" width="13.9" height="18.7"/>
		<rect x="260.5" y="388.5" class="st12" width="13.9" height="18.7"/>
		<rect x="274.4" y="70.9" width="13.9" height="18.7"/>
		<rect x="274.4" y="89.6" class="st5" width="13.9" height="18.7"/>
		<rect x="274.4" y="108.3" width="13.9" height="18.7"/>
		<rect x="274.4" y="126.9" width="13.9" height="18.7"/>
		<rect x="274.4" y="145.6" class="st5" width="13.9" height="18.7"/>
		<rect x="274.4" y="164.3" class="st8" width="13.9" height="18.7"/>
		<rect x="274.4" y="183" class="st6" width="13.9" height="18.7"/>
		<rect x="274.4" y="201.7" class="st6" width="13.9" height="18.7"/>
		<rect x="274.4" y="220.4" width="13.9" height="18.7"/>
		<rect x="274.4" y="239.1" class="st5" width="13.9" height="18.7"/>
		<rect x="274.4" y="257.7" class="st8" width="13.9" height="18.7"/>
		<rect x="274.4" y="276.4" class="st7" width="13.9" height="18.7"/>
		<rect x="274.4" y="295.1" class="st4" width="13.9" height="18.7"/>
		<rect x="274.4" y="313.8" width="13.9" height="18.7"/>
		<rect x="274.4" y="332.5" class="st5" width="13.9" height="18.7"/>
		<rect x="274.4" y="351.2" class="st5" width="13.9" height="18.7"/>
		<rect x="274.4" y="369.9" class="st7" width="13.9" height="18.7"/>
		<rect x="274.4" y="388.5" class="st12" width="13.9" height="18.7"/>
		<rect x="288.3" y="70.9" class="st11" width="13.9" height="18.7"/>
		<rect x="288.3" y="89.6" class="st9" width="13.9" height="18.7"/>
		<rect x="288.3" y="108.3" class="st7" width="13.9" height="18.7"/>
		<rect x="288.3" y="126.9" class="st7" width="13.9" height="18.7"/>
		<rect x="288.3" y="145.6" class="st16" width="13.9" height="18.7"/>
		<rect x="288.3" y="164.3" class="st12" width="13.9" height="18.7"/>
		<rect x="288.3" y="183" class="st9" width="13.9" height="18.7"/>
		<rect x="288.3" y="201.7" class="st9" width="13.9" height="18.7"/>
		<rect x="288.3" y="220.4" class="st12" width="13.9" height="18.7"/>
		<rect x="288.3" y="239.1" class="st8" width="13.9" height="18.7"/>
		<rect x="288.3" y="257.7" class="st9" width="13.9" height="18.7"/>
		<rect x="288.3" y="276.4" class="st7" width="13.9" height="18.7"/>
		<rect x="288.3" y="295.1" class="st10" width="13.9" height="18.7"/>
		<rect x="288.3" y="313.8" class="st14" width="13.9" height="18.7"/>
		<rect x="288.3" y="332.5" class="st6" width="13.9" height="18.7"/>
		<rect x="288.3" y="351.2" class="st6" width="13.9" height="18.7"/>
		<rect x="288.3" y="369.9" class="st17" width="13.9" height="18.7"/>
		<rect x="288.3" y="388.5" width="13.9" height="18.7"/>
		<rect x="302.1" y="70.9" class="st7" width="13.9" height="18.7"/>
		<rect x="302.1" y="89.6" class="st9" width="13.9" height="18.7"/>
		<rect x="302.1" y="108.3" class="st12" width="13.9" height="18.7"/>
		<rect x="302.1" y="126.9" class="st12" width="13.9" height="18.7"/>
		<rect x="302.1" y="145.6" class="st9" width="13.9" height="18.7"/>
		<rect x="302.1" y="164.3" class="st7" width="13.9" height="18.7"/>
		<rect x="302.1" y="183" class="st9" width="13.9" height="18.7"/>
		<rect x="302.1" y="201.7" class="st9" width="13.9" height="18.7"/>
		<rect x="302.1" y="220.4" class="st12" width="13.9" height="18.7"/>
		<rect x="302.1" y="239.1" class="st16" width="13.9" height="18.7"/>
		<rect x="302.1" y="257.7" class="st7" width="13.9" height="18.7"/>
		<rect x="302.1" y="276.4" class="st9" width="13.9" height="18.7"/>
		<rect x="302.1" y="295.1" class="st15" width="13.9" height="18.7"/>
		<rect x="302.1" y="313.8" class="st10" width="13.9" height="18.7"/>
		<rect x="302.1" y="332.5" class="st6" width="13.9" height="18.7"/>
		<rect x="302.1" y="351.2" class="st6" width="13.9" height="18.7"/>
		<rect x="302.1" y="369.9" class="st4" width="13.9" height="18.7"/>
		<rect x="302.1" y="388.5" class="st6" width="13.9" height="18.7"/>
		<rect x="316" y="70.9" class="st12" width="13.9" height="18.7"/>
		<rect x="316" y="89.6" class="st9" width="13.9" height="18.7"/>
		<rect x="316" y="108.3" class="st9" width="13.9" height="18.7"/>
		<rect x="316" y="126.9" class="st9" width="13.9" height="18.7"/>
		<rect x="316" y="145.6" class="st7" width="13.9" height="18.7"/>
		<rect x="316" y="164.3" class="st12" width="13.9" height="18.7"/>
		<rect x="316" y="183" class="st12" width="13.9" height="18.7"/>
		<rect x="316" y="201.7" class="st16" width="13.9" height="18.7"/>
		<rect x="316" y="220.4" class="st9" width="13.9" height="18.7"/>
		<rect x="316" y="239.1" class="st5" width="13.9" height="18.7"/>
		<rect x="316" y="257.7" class="st7" width="13.9" height="18.7"/>
		<rect x="316" y="276.4" class="st5" width="13.9" height="18.7"/>
		<rect x="316" y="295.1" width="13.9" height="18.7"/>
		<rect x="316" y="313.8" class="st4" width="13.9" height="18.7"/>
		<rect x="316" y="332.5" class="st4" width="13.9" height="18.7"/>
		<rect x="316" y="351.2" class="st5" width="13.9" height="18.7"/>
		<rect x="316" y="369.9" class="st10" width="13.9" height="18.7"/>
		<rect x="316" y="388.5" class="st13" width="13.9" height="18.7"/>
		<rect x="329.9" y="70.9" class="st12" width="13.9" height="18.7"/>
		<rect x="329.9" y="89.6" class="st9" width="13.9" height="18.7"/>
		<rect x="329.9" y="108.3" class="st9" width="13.9" height="18.7"/>
		<rect x="329.9" y="126.9" class="st9" width="13.9" height="18.7"/>
		<rect x="329.9" y="145.6" class="st7" width="13.9" height="18.7"/>
		<rect x="329.9" y="164.3" class="st9" width="13.9" height="18.7"/>
		<rect x="329.9" y="183" class="st16" width="13.9" height="18.7"/>
		<rect x="329.9" y="201.7" class="st12" width="13.9" height="18.7"/>
		<rect x="329.9" y="220.4" class="st9" width="13.9" height="18.7"/>
		<rect x="329.9" y="239.1" class="st9" width="13.9" height="18.7"/>
		<rect x="329.9" y="257.7" class="st8" width="13.9" height="18.7"/>
		<rect x="329.9" y="276.4" class="st8" width="13.9" height="18.7"/>
		<rect x="329.9" y="295.1" class="st10" width="13.9" height="18.7"/>
		<rect x="329.9" y="313.8" class="st15" width="13.9" height="18.7"/>
		<rect x="329.9" y="332.5" class="st5" width="13.9" height="18.7"/>
		<rect x="329.9" y="351.2" class="st6" width="13.9" height="18.7"/>
		<rect x="329.9" y="369.9" class="st10" width="13.9" height="18.7"/>
		<rect x="329.9" y="388.5" class="st4" width="13.9" height="18.7"/>
		<rect x="343.7" y="70.9" class="st8" width="13.9" height="18.7"/>
		<rect x="343.7" y="89.6" class="st9" width="13.9" height="18.7"/>
		<rect x="343.7" y="108.3" class="st7" width="13.9" height="18.7"/>
		<rect x="343.7" y="126.9" class="st7" width="13.9" height="18.7"/>
		<rect x="343.7" y="145.6" class="st12" width="13.9" height="18.7"/>
		<rect x="343.7" y="164.3" class="st16" width="13.9" height="18.7"/>
		<rect x="343.7" y="183" class="st12" width="13.9" height="18.7"/>
		<rect x="343.7" y="201.7" class="st12" width="13.9" height="18.7"/>
		<rect x="343.7" y="220.4" class="st12" width="13.9" height="18.7"/>
		<rect x="343.7" y="239.1" class="st11" width="13.9" height="18.7"/>
		<rect x="343.7" y="257.7" class="st7" width="13.9" height="18.7"/>
		<rect x="343.7" y="276.4" class="st7" width="13.9" height="18.7"/>
		<rect x="343.7" y="295.1" class="st7" width="13.9" height="18.7"/>
		<rect x="343.7" y="313.8" width="13.9" height="18.7"/>
		<rect x="343.7" y="332.5" class="st5" width="13.9" height="18.7"/>
		<rect x="343.7" y="351.2" class="st9" width="13.9" height="18.7"/>
		<rect x="343.7" y="369.9" class="st8" width="13.9" height="18.7"/>
		<rect x="343.7" y="388.5" class="st10" width="13.9" height="18.7"/>
		<rect x="357.6" y="70.9" class="st8" width="13.9" height="18.7"/>
		<rect x="357.6" y="89.6" class="st12" width="13.9" height="18.7"/>
		<rect x="357.6" y="108.3" class="st16" width="13.9" height="18.7"/>
		<rect x="357.6" y="126.9" class="st16" width="13.9" height="18.7"/>
		<rect x="357.6" y="145.6" class="st12" width="13.9" height="18.7"/>
		<rect x="357.6" y="164.3" class="st7" width="13.9" height="18.7"/>
		<rect x="357.6" y="183" class="st12" width="13.9" height="18.7"/>
		<rect x="357.6" y="201.7" class="st16" width="13.9" height="18.7"/>
		<rect x="357.6" y="220.4" class="st12" width="13.9" height="18.7"/>
		<rect x="357.6" y="239.1" class="st5" width="13.9" height="18.7"/>
		<rect x="357.6" y="257.7" class="st8" width="13.9" height="18.7"/>
		<rect x="357.6" y="276.4" class="st8" width="13.9" height="18.7"/>
		<rect x="357.6" y="295.1" class="st8" width="13.9" height="18.7"/>
		<rect x="357.6" y="313.8" class="st4" width="13.9" height="18.7"/>
		<rect x="357.6" y="332.5" class="st15" width="13.9" height="18.7"/>
		<rect x="357.6" y="351.2" class="st9" width="13.9" height="18.7"/>
		<rect x="357.6" y="369.9" class="st6" width="13.9" height="18.7"/>
		<rect x="357.6" y="388.5" class="st4" width="13.9" height="18.7"/>
		<text transform="matrix(1 0 0 1 373.46 82.1294)" class="st18 st19 st20">ABC</text>
		<text transform="matrix(1 0 0 1 373.46 100.8188)" class="st18 st19 st20">SLC13</text>
		<text transform="matrix(1 0 0 1 373.46 119.5015)" class="st18 st19 st20">SLC22</text>
		<rect x="373.5" y="133.6" class="st21" width="11.2" height="6.3"/>
		<text transform="matrix(1 0 0 1 373.46 138.1909)" class="st22"><tspan x="0" y="0" class="st18 st19 st20 st23">O</tspan><tspan x="7.4" y="0" class="st18 st19 st20">C</tspan></text>
		<text transform="matrix(1 0 0 1 373.46 156.8799)" class="st18 st19 st20">SLC17</text>
		<text transform="matrix(1 0 0 1 373.46 175.5625)" class="st18 st19 st20">SLC5</text>
		<text transform="matrix(1 0 0 1 373.46 194.252)" class="st18 st19 st20">SLC36</text>
		<text transform="matrix(1 0 0 1 373.46 212.9346)" class="st18 st19 st20">SLC2</text>
		<text transform="matrix(1 0 0 1 373.46 231.624)" class="st18 st19 st20">SLC34</text>
		<text transform="matrix(1 0 0 1 373.46 250.3066)" class="st18 st19 st20">SLC16</text>
		<text transform="matrix(1 0 0 1 373.46 268.9951)" class="st18 st19 st20">SLC6</text>
		<text transform="matrix(1 0 0 1 373.46 287.6777)" class="st18 st19 st20">SLC23</text>
		<text transform="matrix(1 0 0 1 373.46 306.3672)" class="st18 st19 st20">SLC4</text>
		<text transform="matrix(1 0 0 1 373.46 325.0566)" class="st18 st19 st20">SLC38</text>
		<text transform="matrix(1 0 0 1 373.46 343.7383)" class="st18 st19 st20">SLC42</text>
		<text transform="matrix(1 0 0 1 373.46 362.4287)" class="st18 st19 st20">SLC21</text>
		<text transform="matrix(1 0 0 1 373.46 381.1104)" class="st18 st19 st20">SLC44</text>
		<text transform="matrix(1 0 0 1 373.46 399.7998)" class="st18 st19 st20">SLC39</text>
		<rect x="38.6" y="64.2" class="st24" width="13.9" height="4.7"/>
		<rect x="52.5" y="64.2" class="st24" width="13.9" height="4.7"/>
		<rect x="66.4" y="64.2" class="st24" width="13.9" height="4.7"/>
		<rect x="80.2" y="64.2" class="st24" width="13.9" height="4.7"/>
		<rect x="94.1" y="64.2" class="st25" width="13.9" height="4.7"/>
		<rect x="108" y="64.2" class="st24" width="13.9" height="4.7"/>
		<rect x="121.8" y="64.2" class="st26" width="13.9" height="4.7"/>
		<rect x="135.7" y="64.2" class="st26" width="13.9" height="4.7"/>
		<rect x="149.6" y="64.2" class="st26" width="13.9" height="4.7"/>
		<rect x="163.4" y="64.2" class="st26" width="13.9" height="4.7"/>
		<rect x="177.3" y="64.2" class="st26" width="13.9" height="4.7"/>
		<rect x="191.2" y="64.2" class="st26" width="13.9" height="4.7"/>
		<rect x="205" y="64.2" class="st25" width="13.9" height="4.7"/>
		<rect x="218.9" y="64.2" class="st25" width="13.9" height="4.7"/>
		<rect x="232.8" y="64.2" class="st24" width="13.9" height="4.7"/>
		<rect x="246.7" y="64.2" class="st25" width="13.9" height="4.7"/>
		<rect x="260.5" y="64.2" class="st25" width="13.9" height="4.7"/>
		<rect x="274.4" y="64.2" class="st25" width="13.9" height="4.7"/>
		<rect x="288.3" y="64.2" class="st27" width="13.9" height="4.7"/>
		<rect x="302.1" y="64.2" class="st27" width="13.9" height="4.7"/>
		<rect x="316" y="64.2" class="st27" width="13.9" height="4.7"/>
		<rect x="329.9" y="64.2" class="st27" width="13.9" height="4.7"/>
		<rect x="343.7" y="64.2" class="st27" width="13.9" height="4.7"/>
		<rect x="357.6" y="64.2" class="st27" width="13.9" height="4.7"/>
		<rect x="373.5" y="63.2" class="st21" width="21.1" height="7.9"/>
		<text transform="matrix(1 0 0 1 373.46 68.9351)" class="st18 st19 st28">Region</text>
		<rect x="398.9" y="156.8" class="st17" width="6.7" height="6.7"/>
		<rect x="398.9" y="150.1" class="st14" width="6.7" height="6.7"/>
		<rect x="398.9" y="143.5" class="st15" width="6.7" height="6.7"/>
		<rect x="398.9" y="136.8" class="st13" width="6.7" height="6.7"/>
		<rect x="398.9" y="130.2" class="st4" width="6.7" height="6.7"/>
		<rect x="398.9" y="123.5" class="st10" width="6.7" height="6.7"/>
		<rect x="398.9" y="116.8" class="st6" width="6.7" height="6.7"/>
		<rect x="398.9" y="110.2" width="6.7" height="6.7"/>
		<rect x="398.9" y="103.5" class="st5" width="6.7" height="6.7"/>
		<rect x="398.9" y="96.9" class="st8" width="6.7" height="6.7"/>
		<rect x="398.9" y="90.2" class="st7" width="6.7" height="6.7"/>
		<rect x="398.9" y="83.5" class="st9" width="6.7" height="6.7"/>
		<rect x="398.9" y="76.9" class="st12" width="6.7" height="6.7"/>
		<rect x="398.9" y="70.2" class="st16" width="6.7" height="6.7"/>
		<rect x="398.9" y="63.6" class="st11" width="6.7" height="6.7"/>
		<rect x="408.2" y="160.8" class="st21" width="4.1" height="5.5"/>
		<text transform="matrix(1 0 0 1 408.2266 164.7793)" class="st18 st19 st29">-3</text>
		<rect x="408.2" y="142.6" class="st21" width="4.1" height="5.5"/>
		<text transform="matrix(1 0 0 1 408.2266 146.5698)" class="st18 st19 st29">-2</text>
		<rect x="408.2" y="124.4" class="st21" width="4.1" height="5.5"/>
		<text transform="matrix(1 0 0 1 408.2266 128.3535)" class="st18 st19 st29">-1</text>
		<rect x="408.2" y="106.1" class="st21" width="2.6" height="5.5"/>
		<text transform="matrix(1 0 0 1 408.2266 110.1436)" class="st18 st19 st29">0</text>
		<rect x="408.2" y="87.9" class="st21" width="2.6" height="5.5"/>
		<text transform="matrix(1 0 0 1 408.2266 91.9272)" class="st18 st19 st29">1</text>
		<rect x="408.2" y="69.7" class="st21" width="2.6" height="5.5"/>
		<text transform="matrix(1 0 0 1 408.2266 73.7109)" class="st18 st19 st29">2</text>
		<rect id='dct' x='38.6' y='27' width='166.5' height='380' style='stroke-width: 1; stroke: red; stroke-linecap: square; stroke-linejoin: miter; fill: #990F2600;'/>
		<rect id='cd' x='205' y='27' width='83.3' height='380' style='stroke-width: 1; stroke: red; stroke-linecap: square; stroke-linejoin: miter; fill: #990F2600;'/>
		<rect id='pct' x='288.3' y='27' width='83.2' height='380' style='stroke-width: 1; stroke: red; stroke-linecap: square; stroke-linejoin: miter; fill: #990F2600;'/>
	</g>
</g>
<rect x="321.7" y="8" class="st21" width="24.3" height="11.7"/>
<text transform="matrix(1 0 0 1 321.7051 17.9888)" class="st18 st30 st31">PCT</text>
<rect x="239" y="8.1" class="st21" width="24.3" height="11.7"/>
<text transform="matrix(1 0 0 1 238.9835 17.9944)" class="st18 st30 st31">CD</text>
<rect x="94.7" y="9.1" class="st21" width="59.3" height="11.7"/>
<text transform="matrix(1 0 0 1 94.7208 18.9946)" class="st18 st30 st31">DCT + LH</text>
</svg>
